# xmcd
#
# Track frame offsets:
#  150
#  18275
#  36342
#  55065
#  68995
#  89502
#  119112
#  136655
#  159115
#  175445
#  192700
#  225075
#  246575
#
# Disc length: 3547 seconds
#
# Revision: 0
# Processed by: cddbd v1.5.1PL2 Copyright (c) Steve Scherf et al.
# Submitted via: Collectorz.com_Music_Collector 6.11
#
DISCID=b20dd90d
DTITLE=Stecher, Jody and Brislin, Kate - Heart Songs - The Old Time Country Songs Of Utah Phillips
DYEAR=1997
DGENRE=Country
TTITLE0=Orphan Train
TTITLE1=Walking Through Your Town In The Snow
TTITLE2=Hood River Roll On
TTITLE3=Scofield Mine Disaster
TTITLE4=Miner's Lullaby
TTITLE5=Rock Salt and Nails
TTITLE6=Green Rolling Hills Of West Virginia
TTITLE7=A Ragged Old Man
TTITLE8=The Jury Set Him Free
TTITLE9=Faded Rose
TTITLE10=John D. Lee
TTITLE11=Golden Mansion
TTITLE12=I Remember Loving You
EXTD=
EXTT0=
EXTT1=
EXTT2=
EXTT3=
EXTT4=
EXTT5=
EXTT6=
EXTT7=
EXTT8=
EXTT9=
EXTT10=
EXTT11=
EXTT12=
PLAYORDER=
